<?xml version="1.0" standalone="no"?>
<!DOCTYPE svg PUBLIC "-//W3C//DTD SVG 20010904//EN" "http://www.w3.org/TR/2001/REC-SVG-20010904/DTD/svg10.dtd">
<svg version="1.0" xmlns="http://www.w3.org/2000/svg" width="682.667" height="682.667" viewBox="0 0 512 512"><path d="M121.7 106.6c-.1.1-4 .5-8.7.8-10.1.8-29 4.9-37.8 8.2-16.8 6.3-28.8 13.7-39.2 24.3-7.9 7.9-11.9 13.7-16.5 23.4-5.8 12.1-7.8 22.1-7.8 38.2.1 16.6 2 25.5 8.3 38.1 4.9 9.7 6.5 11.9 15 20.5 8.1 8.2 14.1 12.5 25 17.9 4.7 2.3 8.7 4.4 8.9 4.6.1.1-2 4.5-4.9 9.6-11.6 20.7-28.8 51.1-36.3 64.3-4.4 7.7-9.1 16-10.5 18.5-1.4 2.5-5.3 9.4-8.7 15.5-3.4 6-6.7 11.9-7.3 13.1l-1.1 2h36l36-.1 2.8-5c7.5-13.4 12.1-21.7 16.3-29 4.5-7.8 7.2-12.6 32.3-57.2l12-21.3 32.5.3 32.5.2v112l34.3.1H269V106.3h-73.5c-40.4 0-73.6.1-73.8.3zm78.8 95.7c0 25.3-.3 38.8-1 39-.5.2-18.5.3-40 .2-33.5-.2-39.9-.4-45.5-1.9-14.2-3.8-24-11.1-28.8-21.4-2.3-4.9-2.7-7-2.7-15.2 0-8.5.3-10.1 2.9-15.2 6.4-12.9 20.1-21.5 37.2-23.3 3.2-.4 6-.7 6.1-.8.1-.1 16.3-.2 36-.1h35.8v38.7zM420.4 108.7c-.9 1.6-3.2 4.6-5 6.8-2.6 3.2-18.7 24-35.3 45.5-1 1.4-5.4 7.1-9.8 12.7-18.8 24.4-30.2 39.1-35.5 46l-5.7 7.5.1 27.2v27.2l9.9 12.9c5.4 7.2 12.7 16.7 16.2 21.1 3.4 4.5 20.1 26.5 37.1 48.8 23.3 30.7 31.3 40.6 33 40.7 19.5.4 85.6.2 85.6-.4 0-.6-69.2-92-76.3-100.7-.6-.9-6.1-8.1-12.2-16-6-8-11.3-15-11.8-15.5-8.4-10.3-14.7-19.8-13.9-20.8.5-.7 5.1-6.6 10.3-13.2 5.2-6.6 10.8-13.7 12.4-15.9 1.7-2.1 5-6.4 7.5-9.6 2.5-3.1 11.5-14.7 20-25.6 8.5-10.9 15.7-20.1 16-20.4.3-.3 3.5-4.3 7-9 3.6-4.7 6.7-8.7 7-9 .3-.3 5-6.1 10.3-13 5.4-6.9 10.3-13.2 11-14 7.6-9.6 11.7-14.9 11.7-15.4 0-.3-19.7-.6-43.9-.6h-43.9l-1.8 2.7z"/></svg>
