<svg viewBox="0 0 160 32" xmlns="http://www.w3.org/2000/svg"><path d="M38.4 6.905v19.03h3.317V9.48h5.917v16.456h3.309V6.905H38.4zm18.296 5.26H53.68V29.91h3.265v-5.59c.82 1.236 2.022 1.893 3.421 1.893 3.179 0 5.364-2.549 5.364-7.17 0-4.604-2.133-7.153-5.2-7.153-1.538 0-2.79.717-3.671 2.056l-.164-1.78zm2.85 11.472c-1.727 0-2.6-1.39-2.6-4.57 0-3.204.925-4.603 2.765-4.603 1.779 0 2.651 1.399 2.651 4.578 0 3.205-.933 4.595-2.816 4.595zm18.538-7.092c0-3.343-1.702-4.595-5.148-4.595-2.169 0-3.862.682-4.847 1.252v2.713c.873-.657 2.79-1.365 4.458-1.365 1.563 0 2.28.544 2.28 2.021v.77H74.3c-4.984 0-7.195 1.64-7.195 4.44 0 2.79 1.693 4.353 4.215 4.353 1.918 0 2.739-.63 3.37-1.287h.137c.026.354.13.82.242 1.088h3.179a33.53 33.53 0 01-.164-3.36v-6.03zm-3.257 6.108c-.414.604-1.183 1.097-2.332 1.097-1.365 0-2.056-.821-2.056-2.056 0-1.616 1.123-2.186 3.922-2.186h.466v3.145zm13.96 3.282h3.697l-5.226-7.42 4.595-6.35h-3.282l-4.605 6.35v-6.35H80.71v13.77h3.257v-6.764l4.82 6.764zm15.307-11.195v-2.574H93.166v2.574h3.836v11.195h3.265V14.74h3.827zm1.917-2.574v13.77h2.825l5.036-8.51v8.51h3.179v-13.77h-2.825l-5.036 8.517v-8.517h-3.179zm21.855 13.77h3.697l-5.235-7.421 4.604-6.35h-3.282l-4.604 6.35v-6.35h-3.257v13.77h3.257v-6.764l4.82 6.764zm6.548 4.25c3.032 0 4.155-2.17 5.088-4.985l4.301-13.035h-3.153l-3.04 10.348-3.032-10.348h-3.43l4.743 14.374c-.363.656-.881 1.07-1.78 1.07-.604 0-1.123-.19-1.485-.552v2.66s.501.467 1.788.467zm22.364-4.25h3.179l-.052-13.77h-4.466l-2.98 9.174-2.687-9.174h-4.742v13.77h2.773V15.646l2.98 10.288h2.661l3.334-10.288v10.288z" /><path fill-rule="evenodd" clip-rule="evenodd" d="M32 16c0 8.837-7.163 16-16 16S0 24.837 0 16 7.163 0 16 0s16 7.163 16 16zM16.667 9.067h1.466V25.6h3.334v-19h-4.8c-4.867 0-7.4 2.467-7.4 6.133 0 2.867 1.4 4.6 3.866 6.4l-4.333 6.4h3.6l4.8-7.2-1.667-1.133c-2-1.4-3-2.467-3-4.733 0-2 1.4-3.4 4.134-3.4z" /></svg>
