<svg viewBox="0 0 25 24" fill="none" xmlns="http://www.w3.org/2000/svg"><path d="M23 13.5V12h-4.5v7.5H20v-3h2.25V15H20v-1.5h3ZM14.75 19.5h-3V12h3A2.253 2.253 0 0 1 17 14.25v3a2.253 2.253 0 0 1-2.25 2.25Zm-1.5-1.5h1.5a.75.75 0 0 0 .75-.75v-3a.75.75 0 0 0-.75-.75h-1.5V18ZM8.75 12H5v7.5h1.5v-2.25h2.25a1.502 1.502 0 0 0 1.5-1.5V13.5a1.502 1.502 0 0 0-1.5-1.5ZM6.5 15.75V13.5h2.25v2.25H6.5Z" /><path d="M17 10.5v-3a.68.68 0 0 0-.225-.525l-5.25-5.25A.682.682 0 0 0 11 1.5H3.5A1.504 1.504 0 0 0 2 3v18a1.5 1.5 0 0 0 1.5 1.5h12V21h-12V3h6v4.5A1.504 1.504 0 0 0 11 9h4.5v1.5H17Zm-6-3V3.3l4.2 4.2H11Z" /></svg>
