<svg viewBox="0 0 168 32" xmlns="http://www.w3.org/2000/svg"><g clip-path="url(#a)"><path d="M12.89 6.999H8.96a.274.274 0 0 0-.275.27v6.326H4.48V7.27A.274.274 0 0 0 4.205 7H.275a.274.274 0 0 0-.275.27v17.154c0 .148.124.27.275.27h3.921c.151 0 .275-.122.275-.27V17.54h4.205v6.884c0 .148.125.27.275.27h3.94c.15 0 .274-.122.274-.27V7.27A.274.274 0 0 0 12.89 7Zm9.51 3.787c-1.162 0-2.297.174-3.362.514-1.055.34-2.058.768-2.98 1.283a.268.268 0 0 0-.107.367l1.393 2.521a.28.28 0 0 0 .372.114 16.285 16.285 0 0 1 2.067-.864 5.776 5.776 0 0 1 1.846-.314c.843 0 1.472.148 1.88.445.32.235.524.532.622.916-1.447.096-2.706.253-3.744.47-1.127.245-2.067.568-2.795.96-.745.41-1.295.917-1.641 1.51-.346.593-.515 1.291-.515 2.068 0 .593.116 1.152.329 1.658.221.506.532.95.931 1.335.4.384.887.689 1.464.898.568.21 1.206.323 1.916.323.887 0 1.766-.183 2.6-.532a10.96 10.96 0 0 0 2.013-1.117l.222 1.117c.027.13.142.218.275.218h3.212c.15 0 .275-.122.275-.27v-7.47c0-2.067-.568-3.629-1.695-4.65-1.126-.994-2.661-1.5-4.577-1.5Zm1.784 9.58a7.348 7.348 0 0 1-1.313.768c-.48.218-.994.331-1.544.331-.514 0-.923-.087-1.206-.262-.249-.148-.364-.375-.364-.697 0-.227.062-.445.186-.646.124-.2.355-.384.674-.541.355-.175.843-.323 1.455-.436a17.932 17.932 0 0 1 2.103-.245l.009 1.728Zm18.674-.14a.306.306 0 0 0-.186-.122.267.267 0 0 0-.213.044 7.435 7.435 0 0 1-1.526.837 4.75 4.75 0 0 1-1.819.35c-1.037 0-1.854-.306-2.492-.917-.64-.62-.95-1.44-.95-2.513s.32-1.893.985-2.512c.657-.611 1.526-.925 2.59-.925.914 0 1.855.331 2.777.977a.274.274 0 0 0 .382-.061l1.819-2.39a.267.267 0 0 0-.036-.367c-.594-.524-1.34-.969-2.209-1.318-1.721-.68-4.019-.69-5.953-.043a7.72 7.72 0 0 0-2.537 1.378 6.758 6.758 0 0 0-1.757 2.234c-.434.881-.656 1.902-.656 3.027 0 1.117.195 2.138.585 3.02.39.88.94 1.64 1.633 2.242a7.214 7.214 0 0 0 2.43 1.378c.914.314 1.926.48 3.008.48.932 0 1.907-.157 2.91-.471a8.269 8.269 0 0 0 2.759-1.51.267.267 0 0 0 .053-.357l-1.597-2.46Zm12.625-3.464 4.879-5.2a.278.278 0 0 0 .053-.296.284.284 0 0 0-.257-.166h-4.303c-.08 0-.15.035-.204.087l-4.489 4.73V7.26a.274.274 0 0 0-.275-.27h-3.93a.274.274 0 0 0-.275.27v17.153c0 .149.124.27.275.27h3.93c.15 0 .275-.121.275-.27v-3.123l1.65-1.58 3.265 4.852a.28.28 0 0 0 .23.122h4.25a.292.292 0 0 0 .248-.148.264.264 0 0 0-.017-.28l-5.305-7.495Zm17.574-4.1c-.541-.594-1.233-1.056-2.05-1.388-.816-.331-1.756-.497-2.803-.497-.922 0-1.827.166-2.679.489a7.046 7.046 0 0 0-2.298 1.413 6.907 6.907 0 0 0-1.605 2.234c-.4.872-.604 1.876-.604 2.975 0 1.125.204 2.129.604 3.001.399.873.949 1.623 1.632 2.234.683.61 1.5 1.082 2.422 1.396.914.314 1.916.48 2.98.48.914 0 1.864-.14 2.804-.419.95-.28 1.819-.663 2.582-1.152a.275.275 0 0 0 .097-.357l-1.277-2.304a.28.28 0 0 0-.373-.113 9.262 9.262 0 0 1-1.65.654c-.514.14-1.073.21-1.65.21-.923 0-1.712-.21-2.36-.629-.559-.357-.931-.907-1.144-1.666h8.587c.133 0 .24-.087.275-.218.036-.166.071-.393.116-.698.035-.297.053-.637.053-.995 0-.916-.142-1.789-.417-2.574a6.088 6.088 0 0 0-1.242-2.076Zm-7.425 3.62c.168-.636.47-1.125.904-1.44a2.884 2.884 0 0 1 1.748-.566c.816 0 1.41.21 1.765.61.311.367.497.83.542 1.388h-4.96v.008Zm24.077-4.947a6.423 6.423 0 0 0-1.189-.41c-.381-.096-.887-.14-1.5-.14-1.108 0-2.164.271-3.13.812-.8.445-1.51 1.1-2.121 1.937l-.249-2.19a.276.276 0 0 0-.275-.244h-3.211a.274.274 0 0 0-.275.27v13.044c0 .149.124.27.275.27h3.93c.15 0 .275-.121.275-.27v-6.727c.541-1.09 1.18-1.867 1.907-2.303.746-.445 1.508-.672 2.28-.672.48 0 .879.026 1.19.087.319.061.682.149 1.082.27.07.027.15.01.221-.025a.271.271 0 0 0 .133-.175l.799-3.237c.044-.113-.018-.244-.142-.297Zm12.482 6.344a5.485 5.485 0 0 0 2.085-1.798c.603-.855.905-1.954.905-3.272 0-1.056-.187-1.954-.568-2.678a4.658 4.658 0 0 0-1.553-1.745 6.464 6.464 0 0 0-2.235-.925 12.927 12.927 0 0 0-2.67-.27H91.98a.274.274 0 0 0-.275.27v17.153c0 .149.124.27.275.27h3.93c.15 0 .275-.121.275-.27v-5.907H97.8l3.264 6.038a.282.282 0 0 0 .249.149h4.409a.28.28 0 0 0 .239-.14.246.246 0 0 0 0-.27l-3.77-6.605Zm-4.347-2.792h-1.65V10.62h1.65c.994 0 1.748.157 2.227.454.452.279.674.785.674 1.527 0 1.561-.923 2.285-2.901 2.285Zm15.898-4.101c-1.162 0-2.298.174-3.363.514-1.055.34-2.058.768-2.98 1.283a.268.268 0 0 0-.107.367l1.393 2.521a.28.28 0 0 0 .373.114 16.242 16.242 0 0 1 2.067-.864 5.776 5.776 0 0 1 1.845-.314c.843 0 1.473.148 1.881.445.319.235.523.532.621.916-1.446.096-2.706.253-3.744.47-1.127.245-2.067.568-2.795.96-.745.41-1.295.917-1.641 1.51-.346.593-.514 1.291-.514 2.068 0 .593.115 1.152.328 1.658.222.506.532.95.931 1.335.4.384.888.689 1.464.898.568.21 1.207.323 1.916.323.888 0 1.766-.183 2.6-.532a10.98 10.98 0 0 0 2.014-1.117l.221 1.117c.027.13.142.218.275.218h3.212a.274.274 0 0 0 .275-.27v-7.47c0-2.067-.568-3.629-1.695-4.65-1.117-.994-2.652-1.5-4.577-1.5Zm1.783 9.58a7.358 7.358 0 0 1-1.313.768 3.686 3.686 0 0 1-1.544.331c-.514 0-.922-.087-1.206-.262-.249-.148-.364-.375-.364-.697 0-.227.062-.445.186-.646.125-.2.355-.384.675-.541.354-.175.842-.323 1.455-.436a17.897 17.897 0 0 1 2.102-.245v1.728h.009Zm15.836-9.58c-1.038 0-1.961.218-2.742.637a9.537 9.537 0 0 0-1.739 1.221l-.221-1.309a.283.283 0 0 0-.275-.227h-3.212a.274.274 0 0 0-.275.271v13.044c0 .148.124.27.275.27h3.93a.274.274 0 0 0 .275-.27V15.83c.417-.402.799-.698 1.162-.908.355-.2.781-.305 1.269-.305.63 0 1.065.166 1.295.489.249.357.382.95.382 1.762v7.547c0 .149.124.27.275.27h3.93a.274.274 0 0 0 .275-.27V16.37c0-1.702-.373-3.063-1.1-4.057-.728-1.013-1.916-1.527-3.504-1.527Zm21.628 13.48-5.305-7.504 4.88-5.2a.279.279 0 0 0 .053-.296.285.285 0 0 0-.257-.166h-4.303a.29.29 0 0 0-.204.087l-4.489 4.73V7.26a.274.274 0 0 0-.275-.27h-3.93a.274.274 0 0 0-.275.27v17.153c0 .149.124.27.275.27h3.93a.274.274 0 0 0 .275-.27v-3.123l1.65-1.58 3.256 4.86a.28.28 0 0 0 .23.123h4.25a.292.292 0 0 0 .248-.149.263.263 0 0 0-.009-.279ZM167.725 24.695a.274.274 0 0 0 .275-.27V7.27a.274.274 0 0 0-.275-.27h-12.624a.274.274 0 0 0-.275.27v17.154c0 .149.124.27.275.27h12.624Z"/></g><defs><clipPath id="a"><path transform="translate(0 7)" d="M0 0h168v18H0z"/></clipPath></defs></svg>
