<svg width="106" height="53" fill="none" xmlns="http://www.w3.org/2000/svg">
  <path d="M13.64 28.634c-.514.427-2.44 1.323-2.867.81-.427-.514.806-2.244 1.32-2.67a1.21 1.21 0 1 1 1.547 1.86Z"
    id="yellow" fill="#FFC247" />
  <path d="M24.547 35.385c-.386.546-2.014 1.91-2.56 1.523-.545-.386.2-2.375.585-2.92a1.21 1.21 0 0 1 1.975 1.397Z"
    id="red" fill="#E3636C" />
  <path d="M38.569 36.197c.096.661-.143 2.772-.804 2.868-.661.097-1.494-1.857-1.59-2.518a1.21 1.21 0 0 1 2.394-.35Z"
    id="yellow" fill="#FFC247" />
  <path d="M57.704 28.097c.281.607.654 2.698.048 2.979-.606.281-1.962-1.354-2.243-1.96a1.21 1.21 0 1 1 2.195-1.019Z"
    id="red" fill="#E3636C" />
  <path d="M69.833 21.59c-.11.659-.98 2.596-1.64 2.487-.659-.11-.856-2.225-.747-2.884a1.21 1.21 0 1 1 2.387.397Z"
    id="yellow" fill="#FFC247" />
  <path d="M85.498 37.22c.033.668-.406 2.746-1.074 2.78-.667.032-1.31-1.992-1.343-2.66a1.21 1.21 0 1 1 2.417-.12Z"
    id="red" fill="#E3636C" />
  <path d="M52.992 39.745c-.157.65-1.167 2.518-1.816 2.361-.65-.157-.693-2.28-.536-2.93a1.21 1.21 0 1 1 2.352.569Z"
    id="blue" fill="#6399BB" />
  <path d="M69.624 39.181c.144.653.059 2.775-.593 2.92-.653.144-1.625-1.745-1.77-2.397a1.21 1.21 0 0 1 2.363-.523Z"
    id="yellow" fill="#FFC247" />
  <path
    d="M28.905 24.805c.5-.443 2.397-1.4 2.84-.9.443.5-.735 2.268-1.235 2.711a1.21 1.21 0 0 1-1.605-1.811ZM83.77 24.641c-.434-.507-1.358-2.42-.85-2.854.507-.435 2.254.773 2.688 1.281a1.21 1.21 0 1 1-1.838 1.573Z"
    id="blue" fill="#6399BB" />
  <path d="M94.533 29.823c.49.454 1.627 2.248 1.172 2.738-.454.49-2.328-.51-2.818-.965a1.21 1.21 0 0 1 1.646-1.773Z"
    id="yellow" fill="#FFC247" />
  <g id="lighting">
    <g filter="url(#a)">
      <path d="M13.64 28.634c-.514.427-2.44 1.323-2.867.81-.427-.514.806-2.244 1.32-2.67a1.21 1.21 0 1 1 1.547 1.86Z"
        id="yellow-lighting" fill="#FFD685" />
      <path d="M24.547 35.385c-.386.546-2.014 1.91-2.56 1.523-.545-.386.2-2.375.585-2.92a1.21 1.21 0 0 1 1.975 1.397Z"
        id="red-lighting" fill="#ED979D" />
      <path d="M38.569 36.197c.096.661-.143 2.772-.804 2.868-.661.097-1.494-1.857-1.59-2.518a1.21 1.21 0 0 1 2.394-.35Z"
        id="yellow-lighting" fill="#FFD685" />
      <path d="M57.704 28.097c.281.607.654 2.698.048 2.979-.606.281-1.962-1.354-2.243-1.96a1.21 1.21 0 1 1 2.195-1.019Z"
        id="red-lighting" fill="#ED979D" />
      <path d="M69.833 21.59c-.11.659-.98 2.596-1.64 2.487-.659-.11-.856-2.225-.747-2.884a1.21 1.21 0 1 1 2.387.397Z"
        id="yellow-lighting" fill="#FFD685" />
      <path d="M85.498 37.22c.033.668-.406 2.746-1.074 2.78-.667.032-1.31-1.992-1.343-2.66a1.21 1.21 0 1 1 2.417-.12Z"
        id="red-lighting" fill="#ED979D" />
      <path d="M52.992 39.745c-.157.65-1.167 2.518-1.816 2.361-.65-.157-.693-2.28-.536-2.93a1.21 1.21 0 1 1 2.352.569Z"
        id="blue-lighting" fill="#AAC7DA" />
      <path d="M69.624 39.181c.144.653.059 2.775-.593 2.92-.653.144-1.625-1.745-1.77-2.397a1.21 1.21 0 0 1 2.363-.523Z"
        id="yellow-lighting" fill="#FFD685" />
      <path
        d="M28.905 24.805c.5-.443 2.397-1.4 2.84-.9.443.5-.735 2.268-1.235 2.711a1.21 1.21 0 0 1-1.605-1.811ZM83.77 24.641c-.434-.507-1.358-2.42-.85-2.854.507-.435 2.254.773 2.688 1.281a1.21 1.21 0 1 1-1.838 1.573Z"
        id="blue-lighting" fill="#AAC7DA" />
      <path d="M94.533 29.823c.49.454 1.627 2.248 1.172 2.738-.454.49-2.328-.51-2.818-.965a1.21 1.21 0 0 1 1.646-1.773Z"
        id="yellow-lighting" fill="#FFD685" />
    </g>
    <g filter="url(#b)">
      <path d="M13.64 28.634c-.514.427-2.44 1.323-2.867.81-.427-.514.806-2.244 1.32-2.67a1.21 1.21 0 1 1 1.547 1.86Z"
        id="yellow-lighting" fill="#FFD685" />
      <path d="M24.547 35.385c-.386.546-2.014 1.91-2.56 1.523-.545-.386.2-2.375.585-2.92a1.21 1.21 0 0 1 1.975 1.397Z"
        id="red-lighting" fill="#ED979D" />
      <path d="M38.569 36.197c.096.661-.143 2.772-.804 2.868-.661.097-1.494-1.857-1.59-2.518a1.21 1.21 0 0 1 2.394-.35Z"
        id="yellow-lighting" fill="#FFD685" />
      <path d="M57.704 28.097c.281.607.654 2.698.048 2.979-.606.281-1.962-1.354-2.243-1.96a1.21 1.21 0 1 1 2.195-1.019Z"
        id="red-lighting" fill="#ED979D" />
      <path d="M69.833 21.59c-.11.659-.98 2.596-1.64 2.487-.659-.11-.856-2.225-.747-2.884a1.21 1.21 0 1 1 2.387.397Z"
        id="yellow-lighting" fill="#FFD685" />
      <path d="M85.498 37.22c.033.668-.406 2.746-1.074 2.78-.667.032-1.31-1.992-1.343-2.66a1.21 1.21 0 1 1 2.417-.12Z"
        id="red-lighting" fill="#ED979D" />
      <path d="M52.992 39.745c-.157.65-1.167 2.518-1.816 2.361-.65-.157-.693-2.28-.536-2.93a1.21 1.21 0 1 1 2.352.569Z"
        id="blue-lighting" fill="#AAC7DA" />
      <path d="M69.624 39.181c.144.653.059 2.775-.593 2.92-.653.144-1.625-1.745-1.77-2.397a1.21 1.21 0 0 1 2.363-.523Z"
        id="yellow-lighting" fill="#FFD685" />
      <path
        d="M28.905 24.805c.5-.443 2.397-1.4 2.84-.9.443.5-.735 2.268-1.235 2.711a1.21 1.21 0 0 1-1.605-1.811ZM83.77 24.641c-.434-.507-1.358-2.42-.85-2.854.507-.435 2.254.773 2.688 1.281a1.21 1.21 0 1 1-1.838 1.573Z"
        id="blue-lighting" fill="#AAC7DA" />
      <path d="M94.533 29.823c.49.454 1.627 2.248 1.172 2.738-.454.49-2.328-.51-2.818-.965a1.21 1.21 0 0 1 1.646-1.773Z"
        id="yellow-lighting" fill="#FFD685" />
    </g>
    <g filter="url(#c)">
      <path d="M13.64 28.634c-.514.427-2.44 1.323-2.867.81-.427-.514.806-2.244 1.32-2.67a1.21 1.21 0 1 1 1.547 1.86Z"
        id="yellow-lighting" fill="#FFD685" />
      <path d="M24.547 35.385c-.386.546-2.014 1.91-2.56 1.523-.545-.386.2-2.375.585-2.92a1.21 1.21 0 0 1 1.975 1.397Z"
        id="red-lighting" fill="#ED979D" />
      <path d="M38.569 36.197c.096.661-.143 2.772-.804 2.868-.661.097-1.494-1.857-1.59-2.518a1.21 1.21 0 0 1 2.394-.35Z"
        id="yellow-lighting" fill="#FFD685" />
      <path d="M57.704 28.097c.281.607.654 2.698.048 2.979-.606.281-1.962-1.354-2.243-1.96a1.21 1.21 0 1 1 2.195-1.019Z"
        id="red-lighting" fill="#ED979D" />
      <path d="M69.833 21.59c-.11.659-.98 2.596-1.64 2.487-.659-.11-.856-2.225-.747-2.884a1.21 1.21 0 1 1 2.387.397Z"
        id="yellow-lighting" fill="#FFD685" />
      <path d="M85.498 37.22c.033.668-.406 2.746-1.074 2.78-.667.032-1.31-1.992-1.343-2.66a1.21 1.21 0 1 1 2.417-.12Z"
        id="red-lighting" fill="#ED979D" />
      <path d="M52.992 39.745c-.157.65-1.167 2.518-1.816 2.361-.65-.157-.693-2.28-.536-2.93a1.21 1.21 0 1 1 2.352.569Z"
        id="blue-lighting" fill="#AAC7DA" />
      <path d="M69.624 39.181c.144.653.059 2.775-.593 2.92-.653.144-1.625-1.745-1.77-2.397a1.21 1.21 0 0 1 2.363-.523Z"
        id="yellow-lighting" fill="#FFD685" />
      <path
        d="M28.905 24.805c.5-.443 2.397-1.4 2.84-.9.443.5-.735 2.268-1.235 2.711a1.21 1.21 0 0 1-1.605-1.811ZM83.77 24.641c-.434-.507-1.358-2.42-.85-2.854.507-.435 2.254.773 2.688 1.281a1.21 1.21 0 1 1-1.838 1.573Z"
        id="blue-lighting" fill="#AAC7DA" />
      <path d="M94.533 29.823c.49.454 1.627 2.248 1.172 2.738-.454.49-2.328-.51-2.818-.965a1.21 1.21 0 0 1 1.646-1.773Z"
        id="yellow-lighting" fill="#FFD685" />
    </g>
  </g>
  <path
    d="M9 17s38.645 28.57 63.5 19c11.444-4.406 25-19 25-19S92.476 34.35 84 34.5C75.401 34.653 70 17 70 17S41.803 39.116 24.5 32C16.175 28.576 9 17 9 17Z"
    id="wire"
    stroke="#3D5248" />
  <path
    d="M15.198 17.756H18V5.062h-5.512c-3.108 0-5.033 1.595-5.025 4.033-.008 1.603.868 2.818 2.38 3.438L7 17.756h2.942l2.604-4.777h2.652v4.777Zm0-6.959h-2.81c-1.314 0-2.04-.686-2.033-1.636-.008-.95.76-1.67 2.133-1.67h2.71v3.306ZM33.288 18c1.991 0 3.181-.934 3.727-2h.099v1.744h2.876V9.248c0-3.355-2.736-4.364-5.157-4.364-2.67 0-4.72 1.19-5.38 3.504l2.793.397c.298-.868 1.14-1.611 2.603-1.611 1.389 0 2.15.71 2.15 1.958v.05c0 .86-.902.9-3.141 1.14-2.463.265-4.818 1-4.818 3.86 0 2.496 1.826 3.818 4.248 3.818Zm.776-2.198c-1.248 0-2.14-.57-2.14-1.67 0-1.149 1-1.628 2.339-1.818.785-.107 2.355-.306 2.744-.62v1.496c0 1.413-1.141 2.612-2.943 2.612ZM45.99.818h-2.992v16.926h2.992V.818ZM49.066 17.744h2.992V5.05h-2.992v12.694Zm1.505-14.496c.95 0 1.727-.727 1.727-1.62C52.298.728 51.52 0 50.57 0c-.96 0-1.736.727-1.736 1.628 0 .893.777 1.62 1.736 1.62ZM58.126 10.306c0-1.835 1.108-2.893 2.686-2.893 1.546 0 2.471 1.017 2.471 2.711v7.62h2.992V9.66c.008-3.041-1.727-4.777-4.347-4.777-1.9 0-3.207.91-3.785 2.323h-.149V5.05h-2.86v12.694h2.992v-7.438ZM69.316 17.744h2.992v-4.785h1.463l3.48 4.785h3.62l-4.753-6.463 4.703-6.231h-3.604L73.4 10.174h-1.09V5.05h-2.993v12.694ZM82.566 17.744h2.992V5.05h-2.992v12.694ZM84.07 3.248c.95 0 1.728-.727 1.728-1.62C85.798.728 85.02 0 84.07 0c-.958 0-1.735.727-1.735 1.628 0 .893.777 1.62 1.736 1.62ZM91.626 10.306c0-1.835 1.108-2.893 2.686-2.893 1.546 0 2.471 1.017 2.471 2.711v7.62h2.992V9.66c.008-3.041-1.727-4.777-4.347-4.777-1.9 0-3.207.91-3.785 2.323h-.149V5.05h-2.86v12.694h2.992v-7.438ZM20.467 12.497l3.852 5.247h3.62l-4.753-6.463L27.89 5.05h-3.604l-3.818 5.124v2.323Z"
    id="logo"
    fill="#000" />
  <defs>
    <filter id="a" x="6.685" y="16.182" width="93.125" height="29.934" filterUnits="userSpaceOnUse"
      color-interpolation-filters="sRGB">
      <feFlood flood-opacity="0" result="BackgroundImageFix" />
      <feBlend in="SourceGraphic" in2="BackgroundImageFix" result="shape" />
      <feGaussianBlur stdDeviation="2" result="effect1_foregroundBlur_171_179" />
    </filter>
    <filter id="b" x="2.685" y="12.182" width="101.125" height="37.934" filterUnits="userSpaceOnUse"
      color-interpolation-filters="sRGB">
      <feFlood flood-opacity="0" result="BackgroundImageFix" />
      <feBlend in="SourceGraphic" in2="BackgroundImageFix" result="shape" />
      <feGaussianBlur stdDeviation="4" result="effect1_foregroundBlur_171_179" />
    </filter>
    <filter id="c" x=".685" y="10.182" width="105.125" height="41.934" filterUnits="userSpaceOnUse"
      color-interpolation-filters="sRGB">
      <feFlood flood-opacity="0" result="BackgroundImageFix" />
      <feBlend in="SourceGraphic" in2="BackgroundImageFix" result="shape" />
      <feGaussianBlur stdDeviation="5" result="effect1_foregroundBlur_171_179" />
    </filter>
  </defs>
</svg>
