<svg viewBox="0 0 93 18" xmlns="http://www.w3.org/2000/svg">
  <path d="M8.198 17.756H11V5.062H5.488C2.38 5.062.455 6.657.463 9.095c-.008 1.603.868 2.818 2.38 3.438L0 17.756h2.942l2.603-4.777h2.653v4.777zm0-6.959h-2.81c-1.314 0-2.04-.686-2.033-1.636-.008-.95.76-1.67 2.133-1.67h2.71v3.306zM26.288 18c1.991 0 3.181-.934 3.727-2h.099v1.744h2.876V9.248c0-3.355-2.736-4.364-5.157-4.364-2.67 0-4.72 1.19-5.38 3.504l2.793.397c.298-.868 1.14-1.611 2.603-1.611 1.389 0 2.15.71 2.15 1.958v.05c0 .86-.902.9-3.141 1.14-2.463.265-4.819 1-4.819 3.86 0 2.496 1.827 3.818 4.248 3.818zm.776-2.198c-1.248 0-2.14-.57-2.14-1.67 0-1.149 1-1.628 2.339-1.818.785-.107 2.355-.306 2.743-.62v1.496c0 1.413-1.14 2.612-2.942 2.612zM38.99.818h-2.992v16.926h2.992V.818zM42.066 17.744h2.992V5.05h-2.992v12.694zm1.505-14.496c.95 0 1.727-.727 1.727-1.62C45.298.728 44.52 0 43.57 0c-.96 0-1.736.727-1.736 1.628 0 .893.777 1.62 1.736 1.62zM51.126 10.306c0-1.835 1.108-2.893 2.686-2.893 1.546 0 2.471 1.017 2.471 2.711v7.62h2.992V9.66c.008-3.041-1.727-4.777-4.347-4.777-1.9 0-3.207.91-3.785 2.323h-.149V5.05h-2.86v12.694h2.992v-7.438zM62.316 17.744h2.992v-4.785h1.463l3.48 4.785h3.62l-4.753-6.463 4.703-6.231h-3.604L66.4 10.174h-1.09V5.05h-2.993v12.694zM75.566 17.744h2.992V5.05h-2.992v12.694zM77.07 3.248c.95 0 1.728-.727 1.728-1.62C78.798.728 78.02 0 77.07 0c-.958 0-1.735.727-1.735 1.628 0 .893.777 1.62 1.736 1.62zM84.626 10.306c0-1.835 1.108-2.893 2.686-2.893 1.546 0 2.471 1.017 2.471 2.711v7.62h2.992V9.66c.008-3.041-1.727-4.777-4.347-4.777-1.9 0-3.207.91-3.785 2.323h-.149V5.05h-2.86v12.694h2.992v-7.438zM13.467 12.497l3.851 5.247h3.62l-4.752-6.463L20.89 5.05h-3.604l-3.818 5.124v2.323z"/>
</svg>
