<svg viewBox="0 0 160 32" xmlns="http://www.w3.org/2000/svg"><path d="M69.52 9.2H66.8v10.64h2.72V9.2zm-1.36-2c.48 0 .88-.16 1.12-.48.32-.32.48-.64.48-1.12 0-.4-.16-.8-.48-1.12-.24-.24-.64-.4-1.12-.4-.48 0-.88.16-1.12.48-.32.32-.48.64-.48 1.12 0 .4.16.8.48 1.12.24.24.64.4 1.12.4zm12.16 11.52h-4.08c-.4-.16-.48-.32-.48-.56V15.2h3.76v-1.6h-3.76v-2.88c0-.08 0-.16.24-.16h4.32V9.28H75.2c-.88 0-1.44.24-1.76.72-.24.4-.4.96-.4 1.68v6.24c0 .72.16 1.2.48 1.6.32.32.8.48 1.44.48h5.36v-1.28zm9.76.8l.48.48c.16.16.4.16.64.16.4 0 .72-.16.8-.4.08-.16.16-.48.16-.96V9.2h-1.6l.08 6.08-.08-.08c-.24-.32-.72-1.04-1.44-2.08s-1.36-2-1.92-2.8c-.24-.32-.48-.56-.8-.8-.32-.16-.64-.32-1.04-.32-.56 0-.96.16-1.36.48-.32.32-.56.72-.56 1.36v8.88h1.52v-8.16c.16.24.48.8 1.12 1.68.56.88 1.52 2.32 2.8 4.32l.8 1.2c.16.24.24.4.4.56zm65.04.32h2.72v-9.12h2.08V9.2h-6.88v1.52h2.08v9.12zm-44.64-1.68V15.2h3.76v-1.6h-3.76v-2.88c0-.08 0-.16.24-.16h4.32V9.28h-5.12c-.88 0-1.44.24-1.76.72-.24.4-.4.96-.4 1.68v6.24c0 .72.16 1.2.48 1.6.32.32.8.48 1.44.48h5.36v-1.28h-4.08c-.32-.16-.48-.32-.48-.56zm-6.64-1.36c-.48 1.12-1.28 1.76-2.16 2h-.4c-1.04 0-1.76-.4-2.16-1.28-.4-.88-.64-2-.64-3.2 0-.72.08-1.36.24-2 .16-.64.48-1.12.88-1.52.4-.4.88-.56 1.52-.56 1.12 0 2.16.8 2.72 1.92l1.28-.64c-.56-.88-1.04-1.52-1.92-2-.64-.4-1.44-.64-2.4-.64-1.04 0-2 .24-2.8.8-.8.48-1.44 1.2-1.92 2s-.64 1.76-.64 2.72v.56c.08.8.24 1.6.64 2.24.08.08.08.16.16.32l.08.08c.08.08.16.24.24.32.08.08.16.24.24.32l.16.16.4.4c.08.08.16.16.24.16l.16.16c.08.08.16.08.24.16.8.48 1.76.8 2.8.8.96 0 1.76-.24 2.4-.64.8-.48 1.28-1.12 1.92-2l-1.28-.64zm-40.4.72l-1.28-.64c-.48 1.04-1.28 1.68-2.16 1.92h-.4c-1.04 0-1.76-.4-2.16-1.28-.4-.88-.64-2-.64-3.2 0-.72.08-1.36.32-2 .16-.64.48-1.12.88-1.52.4-.4.88-.56 1.52-.56 1.12 0 2.16.8 2.72 1.92l1.28-.64c-.56-.88-1.04-1.52-1.92-2-.64-.4-1.44-.64-2.4-.64-1.04 0-2 .24-2.8.8-.8.48-1.44 1.2-1.92 2s-.64 1.76-.64 2.72v.56c.08.8.24 1.6.64 2.24.08.08.08.16.16.32l.08.08c.08.08.16.24.24.32.08.08.16.24.24.32l.16.16.4.4c.08.08.16.16.24.16 0 .16 0 .24.08.24.08.08.16.08.24.16.8.48 1.76.8 2.8.8.96 0 1.76-.24 2.4-.64.8-.48 1.28-1.12 1.92-2zm73.84-8.56c-3.12 0-5.6 2.48-5.6 5.6 0 3.12 2.48 5.6 5.6 5.6 3.12 0 5.6-2.48 5.6-5.6 0-3.12-2.48-5.6-5.6-5.6zm0 9.84c-1.44 0-2.56-1.92-2.56-4.24 0-2.32 1.12-4.24 2.56-4.24s2.56 1.92 2.56 4.24c0 2.32-1.12 4.24-2.56 4.24zm11.2-8.08h2.4V9.2h-2.32V6.88v-.64c0-.32.24-.48.56-.56H150.88V4.24c-4.32-.48-5.12.08-5.12 2.8v12.88h2.72v-9.2zm-98.64 7.2c.56-.8.88-1.68.88-2.48 0-1.12-.4-2.16-1.12-2.88-.56-.64-1.52-1.2-2.88-1.76-1.12-.48-1.68-.8-2.16-1.04-.8-.4-1.28-1.2-1.28-2 0-1.04.72-2 1.76-2.24.24-.08.48-.08.72-.08 1.36 0 2.4.72 3.04 2.08v.08l1.12-.72V6.8c-.24-.56-.64-1.04-1.12-1.44-.48-.4-1.04-.72-1.68-.96a4.96 4.96 0 00-1.84-.32c-.96 0-1.76.16-2.56.56s-1.44.96-1.84 1.6c-.48.72-.64 1.44-.64 2.24 0 1.2.32 2.16 1.04 2.72.56.56 1.44 1.04 2.72 1.6 1.2.48 1.68.72 2.32 1.12.08.08.16.16.32.24.56.48.88 1.12.88 1.92 0 1.44-1.2 2.56-2.72 2.56-.72 0-1.28-.16-1.76-.48-.48-.32-.88-.8-1.36-1.44v.08l-1.2.88.08.08c.96 1.6 2.64 2.48 4.96 2.48.88 0 1.68-.16 2.48-.56.8-.56 1.36-1.12 1.84-1.76zm78.64 0c.56-.8.88-1.68.88-2.48 0-1.12-.4-2.16-1.12-2.88-.56-.64-1.52-1.2-2.88-1.76-1.12-.48-1.68-.8-2.16-1.04-.8-.4-1.28-1.2-1.28-2 0-1.04.72-2 1.76-2.24.24-.08.48-.08.72-.08 1.36 0 2.4.72 3.04 2.08l.08.08 1.12-.72V6.8c-.24-.56-.64-1.04-1.12-1.44-.48-.4-1.04-.72-1.68-.96a4.96 4.96 0 00-1.84-.32c-.96 0-1.76.16-2.56.56s-1.44.96-1.84 1.6c-.48.72-.64 1.44-.64 2.24 0 1.2.32 2.16 1.04 2.72.56.56 1.44 1.04 2.8 1.6 1.2.48 1.68.72 2.32 1.12.08.08.16.16.32.24.64.48.88 1.12.88 1.92 0 1.44-1.2 2.56-2.72 2.56-.72 0-1.28-.16-1.76-.48-.48-.32-.88-.8-1.36-1.44l-.08-.08-1.2.88.08.08c.96 1.6 2.64 2.48 4.96 2.48.88 0 1.68-.16 2.48-.56.72-.4 1.28-.96 1.76-1.6zm29.36 6.4v.32h.64v3.12h.72v-3.12h.8v-.32h-2.16zm-114.8-1.6c-.24-.08-.48-.16-.72-.16h-2.08v5.12h.88v-2.16h.72c.48 0 .8-.08 1.12-.16.24-.08.48-.24.64-.48.16-.24.24-.48.24-.88 0-.32-.08-.56-.24-.8-.16-.16-.32-.4-.56-.48zm-.4 2.24c-.24.24-.56.32-.96.32h-.48v-2.4h.56c.24 0 .56.08.72.16.16.08.32.24.4.4 0 .16.08.32.08.56 0 .4-.08.72-.32.96zm4.8.8c.08-.16.16-.32.16-.56 0-.16-.08-.32-.16-.48-.08-.16-.24-.24-.4-.32-.16-.08-.4-.08-.56-.08h-1.52v3.44h.96v-3.28h.32c.24 0 .48.08.56.24.08.08.16.32.16.48 0 .56-.24.8-.72.8h-.08l.88 1.76h.8l-.96-1.68c.24-.08.48-.24.56-.32zm9.04 1.52v-1.12h1.28v-.32h-1.28v-1.12c0-.08.08-.16.16-.16H58v-.32h-1.76c-.24 0-.4 0-.48.16 0 .16-.08.32-.08.56v2.16c0 .24.08.4.16.48.08.08.24.16.4.16h1.84v-.24h-1.36c-.16 0-.24-.08-.24-.24zm8.96.48h.72v-3.44h-.72v3.44zm.32-5.2c-.16 0-.24.08-.32.16-.08.08-.16.24-.16.32 0 .08.08.24.16.32.08.08.16.16.32.16.08 0 .24-.08.32-.16.08-.08.16-.16.16-.32 0-.08-.08-.24-.16-.32-.08-.08-.16-.16-.32-.16zm8.8 3.76c0 .08-.08.08-.08.08s-.08 0-.16-.16c-.08-.08-.24-.32-.48-.72-.24-.4-.48-.72-.64-.96l-.24-.24c-.08-.08-.16-.08-.32-.08s-.32.08-.4.16c-.08.08-.16.24-.16.4v2.96h.4v-2.8c0-.08.08-.08.08-.08l.08.08c.08.08.24.24.4.56.24.24.56.8.96 1.44l.32.4c0 .08.08.08.08.16.08.08.08.16.16.16.08.08.08.08.16.08s.16 0 .16-.08V24.24h-.32v2.08zm3.28-2c-.08-.08-.24-.16-.48-.16-.16 0-.32.08-.4.16l-.24.48-.8 2.96h.32l.32-1.12h1.28l.32 1.04h.72l-.8-2.8c-.08-.24-.16-.48-.24-.56zm-1.2 2.08l.4-1.36c0-.08.08-.16.08-.24 0-.08 0-.08.08-.08h.08v.16c.08 0 .08.08.08.16l.4 1.36h-1.12zm4.08 1.12v-4.96H80v4.72c0 .16 0 .24.08.32.08.08.24.16.4.16h.8v-.24h-.56zm15.52-2.88h.72v3.12h.72v-3.12h.72v-.32h-2.16v.32zm6.4 2.64v.16c-.08 0-.08.08-.08.08h-.08c-.08 0-.08-.08-.08-.08-.08 0-.08-.08-.08-.16s-.08-.16-.08-.24l-.8-2.64h-.8l.56 1.76-.32.88c-.08.08-.08.08-.08.16-.08.08-.08.16-.08.16 0 .08-.08.08-.08.08l-.08-.08c0-.08-.08-.08-.08-.16s0-.24-.08-.4l-.72-2.48h-.72l.96 3.28c.08.16.16.32.24.4.08.08.24.16.4.16.16 0 .32 0 .4-.08.08-.08.16-.16.24-.4l.24-.64.24.72c.08.24.24.4.56.4.24 0 .4 0 .48-.08.08-.08.16-.24.24-.4l.88-3.12h-.4l-.8 2.72zm3.6-2.96c-.08-.08-.24-.16-.48-.16-.16 0-.32.08-.4.16l-.24.48-.8 2.96h.32l.32-1.12h1.28l.32 1.04h.72l-.8-2.8c-.08-.24-.16-.48-.24-.56zm-1.2 2.08l.4-1.36c0-.08.08-.16.08-.24 0-.08 0-.08.08-.08h.08v.16c.08 0 .08.08.08.16l.4 1.36h-1.12zm5.76-.64c.08-.16.16-.32.16-.56 0-.16-.08-.32-.16-.48-.08-.16-.24-.24-.4-.32-.16-.08-.4-.08-.56-.08h-1.52v3.44h.96v-3.28h.32c.24 0 .48.08.56.24.08.08.16.32.16.48 0 .56-.24.8-.72.8h-.08l.88 1.76h.8l-.96-1.68c.24-.08.48-.24.56-.32zm2.08 1.52v-1.12h1.28v-.32h-1.28v-1.12c0-.08.08-.16.16-.16h1.36v-.32h-1.76c-.24 0-.4 0-.48.16-.08.16-.08.32-.08.56v2.16c0 .24.08.4.16.48.08.08.24.16.4.16h1.84v-.24h-1.36c-.16 0-.24-.08-.24-.24zm9.36-3.92c-.24-.24-.56-.4-.88-.56-.32-.16-.72-.24-1.2-.24h-1.68v5.2h1.84c.56 0 .96-.08 1.36-.24.4-.24.64-.48.88-.88s.32-.8.32-1.36c0-.4-.08-.72-.16-1.04-.08-.32-.24-.64-.48-.88zm-.48 2.96c-.08.32-.32.56-.56.8-.24.24-.64.32-1.12.32h-.64V22.88h.56c.4 0 .8.08 1.04.32.32.24.48.56.64.88.16.32.24.72.24 1.2 0 .4-.08.72-.16 1.04zm3.12.96v-1.12h1.28v-.32h-1.28v-1.12c0-.08.08-.16.16-.16h1.36v-.32h-1.76c-.24 0-.4 0-.48.16 0 .16-.08.32-.08.56v2.16c0 .24.08.4.16.48.08.08.24.16.4.16h1.84v-.24h-1.36c-.16 0-.24-.08-.24-.24zm4.24-.32c0 .08-.08.16-.08.24 0 .08-.08.08-.08.08h-.08c-.08 0-.08 0-.08-.08-.08 0-.08-.08-.08-.16l-.8-2.64h-.8l.88 2.88c.08.24.16.4.24.48.08.08.24.16.4.16.16 0 .32-.08.4-.16.08-.16.16-.24.24-.48l.88-2.96h-.32l-.72 2.64zm2.88.32v-1.12h1.28v-.32H132v-1.12c0-.08 0-.16.16-.16h1.36v-.32h-1.76c-.24 0-.4 0-.48.16-.08.16-.08.32-.08.56v2.16c0 .24.08.4.16.48.08.08.24.16.4.16h1.84v-.24h-1.36c-.16 0-.24-.08-.24-.24zm3.52.24v-4.88h-.72v4.64c0 .16 0 .24.08.32.08.08.24.16.4.16h.8v-.24h-.56zm8-2.96c-.24-.16-.56-.24-.96-.24h-1.12v5.2h.64v-1.68h.72c.48 0 .88-.16 1.2-.48.32-.32.48-.72.48-1.28 0-.32-.08-.64-.24-.88-.24-.32-.4-.48-.72-.64zm0 2.4c-.08.24-.16.4-.32.48-.16.08-.32.16-.56.16h-.48v-3.04h.08c.4 0 .72.08.88.24.24.24.32.4.4.64.08.24.08.56.08.8 0 .32 0 .56-.08.72zm4.64-2.72c-.08 0-.24 0-.32.08-.08.08-.16.16-.16.32l-.48 1.76-.48-1.52c-.08-.24-.16-.4-.24-.48-.08-.08-.16-.16-.4-.16-.16 0-.32.08-.4.16-.08.08-.08.24-.08.48v2.88h.32v-2.88-.16c.08 0 .08.08.08.08s.08.08.08.16l.72 2.48c0 .08.08.16.08.24.08.08.08.08.16.08s.16-.08.16-.08.08-.08.08-.24l.56-2c.08-.32.16-.48.16-.56 0-.08.08-.08.08-.08h.08v2.96h.64v-2.88c0-.24-.08-.4-.16-.48-.08-.08-.24-.16-.48-.16zm2.32.16c-.08.16-.08.32-.08.56v2.16c0 .24.08.4.16.48.08.08.24.16.4.16h1.84v-.24h-1.36c-.16 0-.24-.08-.24-.24v-1.12h1.36v-.32h-1.28v-1.12c0-.08.08-.16.16-.16h1.36v-.32h-1.84c-.24 0-.4 0-.48.16zm6 1.92c0 .08-.08.08-.08.08s-.08 0-.16-.16c-.08-.08-.24-.32-.48-.72-.24-.4-.48-.72-.64-.96l-.24-.24c-.08-.08-.16-.08-.32-.08s-.32.08-.4.16c-.08.08-.16.24-.16.4v2.96h.4v-2.8c0-.08.08-.08.08-.08.08 0 .08 0 .16.08s.24.24.4.56c.16.24.48.8.96 1.44l.24.4c0 .08.08.08.08.16.08.08.08.16.16.16.08.08.08.08.16.08s.16 0 .16-.08V24.24h-.32v2.08zM94.4 22.56c-.08.16-.16.32-.16.72v4.48h.72v-3.12h.8v-.32h-.88v-1.04-.24c0-.16.16-.24.32-.32h.56v-.32h-.64c-.4 0-.64.08-.72.16zm-40.96 0c-.08.16-.16.32-.16.72v4.48H54v-3.2h.8v-.32h-.88v-.96-.24c0-.16.16-.24.32-.32h.56v-.32h-.64c-.4 0-.64.08-.72.16zm6.88 3.12l-.16-.08c-.16-.08-.24-.16-.32-.16-.08 0-.08-.08-.16-.08-.08-.08-.16-.16-.16-.32v-.08c0-.08 0-.08.08-.16l.16-.16c.08-.08.24-.08.56-.08H60.88v-.24c-.8-.08-1.28-.08-1.6.16-.24.16-.4.4-.4.72 0 .16.08.4.24.56.16.16.32.24.56.4.24.16.4.24.48.32.24.16.32.32.32.4 0 .16-.08.48-.8.48-.16 0-.4 0-.72-.08v.24c.16 0 .32.08.48.08H60c.24 0 .4 0 .64-.08.16.08.32 0 .4-.16.16-.16.16-.32.16-.56 0-.24-.16-.48-.24-.64-.16-.16-.4-.32-.64-.48zm3.04 0h-.16c-.16-.08-.24-.16-.32-.16-.08 0-.08-.08-.16-.08-.08-.08-.16-.16-.16-.32v-.08c0-.08 0-.08.08-.16l.16-.16c.08-.08.24-.08.56-.08H63.92v-.24c-.8-.08-1.28-.08-1.6.16-.24.16-.4.4-.4.72 0 .16.08.4.24.56.16.16.32.24.56.4.24.16.4.24.48.32.24.16.32.32.32.4 0 .16-.08.48-.8.48-.16 0-.4 0-.72-.08v.24c.16 0 .32.08.48.08h.56c.24 0 .4 0 .64-.08.16 0 .32-.08.4-.24.16-.16.16-.32.16-.56 0-.24-.16-.48-.24-.64-.16-.16-.4-.32-.64-.48zm27.76-1.44c-.96 0-1.76.8-1.76 1.84s.8 1.84 1.76 1.84 1.76-.8 1.76-1.84c.08-1.04-.72-1.84-1.76-1.84zm0 3.36c-.56 0-.96-.72-.96-1.52 0-.88.4-1.52.96-1.52.56 0 .96.72.96 1.52 0 .88-.4 1.52-.96 1.52zm-4.08-2.8c-.4-.16-.56-.24-.72-.32-.24-.16-.48-.4-.48-.72 0-.4.24-.72.64-.8h.24c.48 0 .8.24 1.04.72l.32-.24c-.08-.16-.24-.32-.4-.48-.16-.16-.32-.24-.56-.32-.24-.08-.4-.08-.64-.08-.32 0-.64.08-.88.24-.24.16-.48.32-.64.56-.16.24-.24.48-.24.72 0 .4.08.72.32.96.16.16.48.32.96.56.4.16.56.24.8.4l.08.08c.24.16.32.4.32.72 0 .48-.4.88-.96.88-.24 0-.48-.08-.64-.16-.16-.08-.32-.24-.48-.48l-.4.24c.32.56.88.8 1.68.8.32 0 .56-.08.8-.24.48-.24.72-.4.88-.64.16-.32.32-.56.32-.8 0-.4-.16-.72-.4-.96-.24-.24-.56-.4-.96-.64zm-17.92-.56c-.96 0-1.76.8-1.76 1.84s.8 1.84 1.76 1.84 1.76-.8 1.76-1.84-.8-1.84-1.76-1.84zm0 3.36c-.56 0-.96-.72-.96-1.52 0-.88.4-1.52.96-1.52.56 0 .96.72.96 1.52s-.4 1.52-.96 1.52zm-18.88-3.36c-.96 0-1.76.8-1.76 1.84s.8 1.84 1.76 1.84 1.76-.8 1.76-1.84-.8-1.84-1.76-1.84zm0 3.36c-.56 0-.96-.72-.96-1.52 0-.88.4-1.52.96-1.52.56 0 .96.72.96 1.52s-.48 1.52-.96 1.52zm88.24-3.36c-.96 0-1.76.8-1.76 1.84s.8 1.84 1.76 1.84 1.76-.8 1.76-1.84c.08-1.04-.72-1.84-1.76-1.84zm0 3.36c-.56 0-.96-.72-.96-1.52 0-.88.4-1.52.96-1.52.56 0 .96.72.96 1.52s-.4 1.52-.96 1.52zM15.68 17.04c-4.24-1.92-8.32-4.16-8.32-9.2 0-2.32.72-5.44 4.08-7.68H.4v31.6h8.8c8.64 0 13.36-2.72 13.36-7.76 0-2.8-2-4.8-6.88-6.96zm9.52 6.24h7.04V21.2h-7.52c.24.64.4 1.36.48 2.08zm-1.68-4.24h8.72v-2.08H21.2c.88.64 1.68 1.28 2.32 2.08zm1.04 8.48h7.68v-2.08h-7.12c-.08.64-.24 1.36-.56 2.08zM13.04 2.24h19.2V.16h-9.12c-3.52 0-7.44.4-10.08 2.08zm7.92 29.44h11.28V29.6h-8.96c-.56.72-1.36 1.44-2.32 2.08zM10.16 6.4h22.08V4.32H10.96c-.4.64-.64 1.28-.8 2.08zm6.56 8.16c.24.08.48.24.72.32h14.8V12.8H13.28c.88.56 2.08 1.12 3.44 1.76zm-5.84-3.92h21.36V8.56H10.08c.08.8.32 1.44.8 2.08z"/><defs><clipPath id="clip0"><path d="M0 0h160v32H0z"/></clipPath></defs></svg>
