<svg viewBox="0 0 116 32" xmlns="http://www.w3.org/2000/svg"><path fill-rule="evenodd" clip-rule="evenodd" d="M11.286 31.519c-1.413-2.095-6.751-10.411-3.92-12.385 2.256-1.572 3.963-1.752 7.703-2.21 3.72-.454 15.987-1.117 16.125-1.124l.001.2c0 8.837-7.163 16-16 16-1.348 0-2.658-.167-3.91-.481zm-.297-.077A16.035 16.035 0 010 21.025c.591.015 1.525.23 2.527 1.195.352.34 2.4 3 4.637 5.433a61.792 61.792 0 003.825 3.789zM.022 10.909C2.15 4.569 8.138 0 15.195 0c8.77 0 15.892 7.055 15.999 15.8-.166-.015-17.145-1.472-22.446-2.702C3.421 11.862 7.281 2.4 7.281 2.4S4.408 7.112 2.84 9.045c-1.21 1.493-2.36 1.8-2.819 1.864zM48.668 4.87h-.295a46.832 46.832 0 00-.389-.822 3.505 3.505 0 00-.643-.903c-.277-.288-.639-.53-1.086-.728-.447-.197-1-.296-1.662-.296-.483 0-.938.072-1.367.215-.43.144-.8.35-1.113.62-.313.27-.563.607-.75 1.011-.188.404-.282.867-.282 1.388 0 .09.009.238.027.445.018.207.071.436.16.687.233.557.595 1.011 1.086 1.362.492.35.97.669 1.435.956l1.555.89 1.152.755c.411.27.769.557 1.073.862 1.09 1.024 1.635 2.282 1.635 3.774 0 .197-.013.449-.04.754a4.782 4.782 0 01-.215 1.011 5.688 5.688 0 01-.509 1.132 5.257 5.257 0 01-.925 1.146c-.447.431-.907.759-1.38.984a6.59 6.59 0 01-1.368.485 7.068 7.068 0 01-1.193.175 17.67 17.67 0 01-.83.027c-1.109 0-2.003-.121-2.682-.364a20.816 20.816 0 01-1.662-.66v-3.127l.295.027c.143.341.264.607.362.795.098.189.192.355.281.499.108.162.255.332.443.512.187.18.42.346.697.499.277.152.599.278.965.377.366.099.782.148 1.247.148.75 0 1.452-.148 2.104-.445.652-.296 1.184-.768 1.595-1.415.09-.18.201-.435.335-.768.134-.332.201-.76.201-1.28 0-.36-.035-.665-.107-.917a5.11 5.11 0 00-.188-.566c-.25-.61-.603-1.096-1.059-1.455-.455-.36-.951-.701-1.487-1.024l-1.716-1.025a39.51 39.51 0 00-.523-.31 7.237 7.237 0 01-.523-.337c-.536-.377-.965-.759-1.287-1.145a4.92 4.92 0 01-.723-1.119c-.161-.36-.269-.71-.322-1.051a6.116 6.116 0 01-.08-.943c0-.88.142-1.586.428-2.116.286-.53.554-.921.805-1.173a4.73 4.73 0 011.193-.93c.42-.224.826-.386 1.22-.485.393-.099.75-.157 1.072-.175.322-.018.572-.027.75-.027a9.06 9.06 0 011.462.108c.438.072.83.153 1.18.242.348.09.66.19.938.297.277.108.513.198.71.27V4.87zm17.396-.728h-.295c-.107-.665-.34-1.082-.697-1.253-.357-.17-.84-.256-1.448-.256h-4.182v14.932c0 .27.009.508.027.715.018.206.058.395.12.566.063.17.166.337.309.498.143.144.3.265.469.364.17.1.433.194.79.283v.324h-5.79l.027-.324c.053-.018.179-.05.375-.094a1.39 1.39 0 00.563-.283c.215-.162.384-.382.51-.66.125-.279.187-.688.187-1.227V2.58h-3.86c-.519.018-.916.058-1.193.121a1.687 1.687 0 00-.71.337c-.233.198-.372.418-.416.66-.045.243-.076.41-.094.5h-.322V1.284h15.63v2.857zm15.52 16.173h-5.765l.027-.324a3.07 3.07 0 00.71-.188c.224-.09.398-.26.523-.512a.678.678 0 00.121-.31 2.74 2.74 0 00.013-.203c0-.107-.026-.27-.08-.485-.09-.233-.183-.458-.281-.674-.099-.215-.193-.44-.282-.674l-1.501-3.638h-6.837l-1.608 3.773c-.161.396-.295.733-.402 1.011-.108.279-.161.517-.161.714a1.096 1.096 0 00.16.566.98.98 0 00.443.432c.188.09.389.152.603.188v.324h-4.665v-.324c.268-.036.496-.103.684-.202a2.07 2.07 0 00.536-.418c.17-.18.33-.413.483-.7.152-.288.317-.638.496-1.052l7.372-16.576h.242l6.782 16.037c.054.108.112.234.175.378l.2.458c.072.162.144.319.215.472.072.152.134.274.188.363.286.468.576.778.871.93.295.153.54.274.737.364v.27zm-7.052-8.302l-2.76-6.55-2.923 6.55h5.683zm21.364 5.202c.268.521.554 1.006.858 1.456.036.053.112.18.228.377.116.198.264.368.442.512.143.126.304.225.483.297.179.072.286.116.322.134v.324h-1.475a2.6 2.6 0 01-.55-.068 4.046 4.046 0 01-.643-.202 2.455 2.455 0 01-.657-.404c-.34-.27-.63-.606-.871-1.01-.241-.405-.46-.787-.657-1.146l-3.512-6.496c-.357.036-.724.067-1.1.094a15.32 15.32 0 01-1.809.027 17.69 17.69 0 00-.71-.013v6.01c.018.18.027.355.027.526 0 .17.009.337.026.498.018.252.045.468.08.647.037.18.144.369.323.567.143.161.303.283.482.363.179.081.465.176.858.283v.324h-5.737v-.324c.053 0 .143-.013.268-.04a1.94 1.94 0 00.415-.148c.152-.072.295-.171.43-.297.133-.126.236-.287.308-.485.071-.162.112-.395.12-.7.01-.306.023-.675.04-1.106V4.25c0-.45-.008-.813-.026-1.092a2.05 2.05 0 00-.161-.714A1.327 1.327 0 0083.349 2a1.488 1.488 0 00-.442-.256 3.4 3.4 0 00-.415-.12 1.555 1.555 0 00-.242-.041v-.297h6.703c.482 0 .983.01 1.5.027a7.69 7.69 0 011.516.202c.491.117.956.297 1.394.54.438.242.826.588 1.166 1.037.143.216.322.557.536 1.024.215.468.322 1.052.322 1.752 0 .737-.152 1.402-.456 1.995a4.01 4.01 0 01-.71.984 6.538 6.538 0 01-.831.714 6.54 6.54 0 01-.751.472c-.224.117-.389.202-.496.256l3.753 6.927zm-7.64-7.412c.393 0 .795-.023 1.206-.068.411-.045.809-.13 1.193-.256a3.61 3.61 0 001.046-.539c.312-.233.576-.548.79-.943.09-.144.18-.373.269-.688.089-.314.134-.696.134-1.145 0-.575-.117-1.128-.349-1.658a2.825 2.825 0 00-1.126-1.28 3.286 3.286 0 00-1.488-.54 11.488 11.488 0 00-1.568-.053h-2.064l-.054 7.17h2.01zm25.412 7.412c.268.521.554 1.006.857 1.456.036.053.112.18.228.377.117.198.264.368.443.512.143.126.304.225.482.297.179.072.286.116.322.134v.324h-1.475c-.16 0-.344-.023-.549-.068a4.057 4.057 0 01-.644-.202 2.45 2.45 0 01-.656-.404c-.34-.27-.63-.606-.872-1.01a36.68 36.68 0 01-.657-1.146l-3.512-6.496c-.357.036-.723.067-1.099.094-.375.027-.741.04-1.099.04-.25 0-.487-.004-.71-.013a17.748 17.748 0 00-.711-.013v6.01c.018.18.027.355.027.526 0 .17.009.337.027.498.018.252.044.468.08.647.036.18.143.369.322.567.143.161.304.283.482.363.179.081.465.176.858.283v.324h-5.737v-.324c.054 0 .143-.013.268-.04.125-.027.264-.076.416-.148a1.67 1.67 0 00.429-.297c.134-.126.237-.287.308-.485.072-.162.112-.395.121-.7.009-.306.022-.675.04-1.106V4.25c0-.45-.009-.813-.027-1.092a2.039 2.039 0 00-.161-.714 1.322 1.322 0 00-.348-.445 1.49 1.49 0 00-.443-.256 3.398 3.398 0 00-.415-.12 1.566 1.566 0 00-.241-.041v-.297h6.702c.482 0 .983.01 1.501.027a7.688 7.688 0 011.515.202c.491.117.956.297 1.394.54.438.242.827.588 1.166 1.037.143.216.322.557.536 1.024.215.468.322 1.052.322 1.752 0 .737-.152 1.402-.456 1.995a3.994 3.994 0 01-.71.984 6.53 6.53 0 01-.831.714 6.481 6.481 0 01-.751.472c-.223.117-.389.202-.496.256l3.754 6.927zm-7.641-7.412c.393 0 .795-.023 1.206-.068.411-.045.809-.13 1.193-.256a3.607 3.607 0 001.046-.539c.313-.233.576-.548.791-.943.089-.144.178-.373.268-.688.089-.314.134-.696.134-1.145 0-.575-.116-1.128-.349-1.658a2.819 2.819 0 00-1.126-1.28 3.28 3.28 0 00-1.488-.54c-.527-.053-1.05-.071-1.568-.053h-2.064l-.054 7.17h2.011zM46.722 23.416c-.03.008-.073.017-.13.028a.667.667 0 00-.178.067.779.779 0 00-.185.14.558.558 0 00-.135.235c-.014.075-.026.19-.033.348-.008.156-.015.332-.023.526v4.782c.008.284.027.504.056.661.03.157.12.276.27.359.096.052.195.08.296.084l.442.016h1.546c.075 0 .155-.002.24-.005.087-.004.172-.011.258-.023a1.18 1.18 0 00.252-.061.575.575 0 00.213-.135.597.597 0 00.118-.179c.033-.075.069-.175.106-.302h.135V31.2h-5.656v-.134c.044-.008.102-.023.173-.045a.73.73 0 00.207-.107.817.817 0 00.185-.19.762.762 0 00.118-.32c.007-.059.013-.182.017-.369.003-.186.005-.38.005-.582V24.77c0-.201-.003-.379-.011-.532a1.26 1.26 0 00-.056-.353.623.623 0 00-.151-.235.83.83 0 00-.196-.14.73.73 0 00-.19-.067c-.06-.011-.101-.02-.124-.028v-.123h2.43v.123zm19.827 0c-.03.008-.071.017-.123.028a.814.814 0 00-.174.062.569.569 0 00-.174.128.582.582 0 00-.123.23 1.238 1.238 0 00-.039.308c-.004.13-.006.29-.006.476v5.42c0 .09.008.18.023.27 0 .037.005.098.017.184.01.086.05.17.117.252.075.09.159.153.252.19.093.038.189.072.286.102v.134H64.23v-.134c.112-.023.217-.054.314-.096a.658.658 0 00.375-.594l.017-.598v-5.13c0-.194-.002-.347-.006-.46a1.065 1.065 0 00-.05-.302.615.615 0 00-.151-.246.71.71 0 00-.196-.134.863.863 0 00-.19-.062 2.49 2.49 0 01-.135-.028v-.123h2.34v.123zm22.963 0c-.112.022-.2.049-.263.078a.755.755 0 00-.163.101.53.53 0 00-.224.398l-.022.476v6.854h-.1l-6.127-6.933v5.668a2.862 2.862 0 00.022.437c.038.186.11.319.219.397.108.078.248.136.42.174v.134h-1.95l.012-.134.224-.05a.503.503 0 00.291-.208.625.625 0 00.129-.364c.011-.153.017-.282.017-.386v-5.623c0-.186-.002-.334-.006-.442a.557.557 0 00-.084-.286.426.426 0 00-.24-.218 1.728 1.728 0 00-.32-.073v-.123h1.613l5.309 6.014v-4.816l.005-.162a1.134 1.134 0 00-.016-.252.837.837 0 00-.146-.392c-.082-.12-.261-.21-.538-.269v-.123h1.95l-.012.123zm21.126 0a1.67 1.67 0 00-.655.38c-.205.188-.39.363-.554.527l-2.655 2.498 3.114 3.125c.231.246.414.436.549.57a2.89 2.89 0 00.571.449c.037.022.116.056.235.1v.135h-.425c-.15 0-.26-.002-.331-.006a1.517 1.517 0 01-.218-.028 1.664 1.664 0 01-.84-.375 14.856 14.856 0 01-.683-.621l-3.002-3.013V29.8c0 .21.006.379.017.51.011.13.035.24.073.33.059.134.145.23.257.286.112.056.232.102.359.14v.134h-2.397v-.134c.067-.015.134-.032.201-.05a.569.569 0 00.191-.096.565.565 0 00.257-.386c.023-.153.034-.312.034-.476v-5.544c0-.165-.004-.33-.011-.499a.574.574 0 00-.235-.431.725.725 0 00-.168-.1 1.06 1.06 0 00-.292-.068v-.123h2.352v.123c-.037.008-.11.024-.218.05a.522.522 0 00-.286.196.615.615 0 00-.128.398c-.004.168-.006.308-.006.42v2.542l2.677-2.542c.157-.15.284-.276.381-.38a.475.475 0 00.145-.326.29.29 0 00-.056-.184.357.357 0 00-.123-.107.676.676 0 00-.224-.067v-.123h2.094v.123z" /></svg>
