<svg viewBox="0 0 139 32" xmlns="http://www.w3.org/2000/svg"><g clip-path="url(#clip0)"><path d="M42.8 21.1c-.4.1-.9.2-1.4.2-1 0-1.4-.6-1.4-1.6v-4.5h2.8c.7 0 1.4-.5 1.4-1.3s-.6-1.3-1.4-1.3H40v-1.5c0-.9-.7-1.5-1.5-1.5s-1.5.7-1.5 1.5v8.7c0 2.5 1.2 4.3 4 4.3.8 0 1.9-.1 2.7-.5.7-.3.9-.8.9-1.3 0-.7-.7-1.4-1.8-1.2zm10-8.9c-.4-.1-1.2-.2-1.9-.2-2.5 0-3.9 1.5-3.9 3.8v6.8c0 .8.7 1.5 1.5 1.5s1.5-.7 1.5-1.5v-6.2c0-1 .4-1.4 1.1-1.4.7 0 1.1.2 1.7.2.9 0 1.4-.8 1.4-1.4-.1-.8-.5-1.3-1.4-1.6zm8.3-.2c-2.8 0-4.8 1.8-5.1 4.7 0 .7-.1 1.9 0 2.8.2 2.8 2.2 4.7 5.2 4.7 1.4 0 2.7-.3 3.5-.8.6-.4.7-.8.7-1.2 0-.8-.7-1.6-1.9-1.2-.7.3-1.5.5-2.3.5-1.4 0-2.5-.7-2.5-2.1v-.3h5.7c1 0 1.5-.6 1.5-1.5v-.5C66 14 64 12 61.1 12zm1.9 5.1h-4.2c0-1.5.7-2.5 2.3-2.5 1.4 0 2.2.9 2.1 2.2 0 .2 0 .3-.2.3zM73.1 12c-2.8 0-4.8 1.8-5.1 4.7 0 .7-.1 1.9 0 2.8.2 2.8 2.2 4.7 5.2 4.7 1.4 0 2.7-.3 3.5-.8.6-.4.7-.8.7-1.2 0-.8-.7-1.6-1.9-1.2-.7.3-1.5.5-2.3.5-1.4 0-2.5-.7-2.5-2.1v-.3h5.7c1 0 1.5-.6 1.5-1.5v-.5C78 14 76 12 73.1 12zm1.9 5.1h-4.2c0-1.5.7-2.5 2.3-2.5 1.4 0 2.2.9 2.1 2.2 0 .2 0 .3-.2.3zm48.6-.1l-1.6-.4c-1-.2-1.3-.5-1.3-1s.5-.9 1.6-.9c.6 0 1.3.2 1.9.5.7.4 1.5.3 1.9-.2.5-.5.5-1.4-.1-2-.8-.6-2.2-1-3.6-1-2.6 0-4.5 1.3-4.5 3.7 0 1.9 1.4 2.9 3.2 3.4.9.2.8.2 1.6.4.9.2 1.3.6 1.3 1 0 .6-.5 1-1.7 1-1 0-1.9-.3-2.6-.7-.7-.5-1.5-.3-1.9.3-.4.6-.3 1.4.3 1.8.8.7 2.1 1.3 4.2 1.3 2.6 0 4.6-1.4 4.6-3.8 0-1.8-1.1-2.9-3.3-3.4zm13.9 2.1c1 0 1.5-.6 1.5-1.5v-.5c0-3.1-2-5.1-4.9-5.1-2.8 0-4.8 1.8-5.1 4.7 0 .7-.1 1.9 0 2.8.2 2.8 2.2 4.7 5.2 4.7 1.4 0 2.7-.3 3.5-.8.6-.4.7-.8.7-1.2 0-.8-.7-1.6-1.9-1.2-.7.3-1.5.5-2.3.5-1.4 0-2.5-.7-2.5-2.1v-.3h5.8zm-3.4-4.5c1.4 0 2.2.9 2.1 2.2 0 .2-.1.3-.2.3h-4.2c0-1.5.8-2.5 2.3-2.5zM97.5 12c-3 0-5.2 1.9-5.5 4.5-.1.9-.1 2.3 0 3.2.2 2.6 2.5 4.5 5.5 4.5s5.2-1.9 5.4-4.5c.1-.9.1-2.2 0-3.1-.2-2.7-2.4-4.6-5.4-4.6zm2.4 7.2c-.1 1.3-1 2.1-2.4 2.1s-2.3-.9-2.4-2.1V17c.1-1.3 1-2.1 2.4-2.1s2.3.9 2.4 2.1c.1.6.1 1.6 0 2.2zM85.6 12c-1.1 0-2.3.4-2.7.9V9.7c0-.9-.6-1.5-1.4-1.5-.8 0-1.4.7-1.4 1.5v12.9c0 .8.7 1.5 1.5 1.5s1.4-.7 1.4-1.5v-6.7c.5-.5 1.3-.9 2.3-.9 1.2 0 1.9.7 1.9 2.1v5.5c0 .9.6 1.6 1.4 1.6.9 0 1.5-.7 1.5-1.6v-5.7c-.1-3.2-1.7-4.9-4.5-4.9zm28 .1c-.8 0-1.5.7-1.5 1.5v7.1c-.5.3-1.2.6-2.1.6-1.2 0-2.1-.7-2.1-2.1v-5.6c0-.9-.7-1.6-1.5-1.6-.9 0-1.4.7-1.4 1.6v5.7c0 3.1 1.8 4.8 4.9 4.8 2.3 0 3.9-.8 4.6-1.3.4-.2.5-.5.5-1v-8.2c0-.8-.6-1.5-1.4-1.5zM26 5.9c-1.1-.6-2.8.4-3.8 2.2l-1.9 3.2c-.7 1.3-.6 2.9.3 4.2l.1.1c.9 1.2 2 2.4 2.4 2.8.2.2.4.5.5.9.3 1.1-.3 2.3-1.5 2.6-1.1.3-2.3-.3-2.6-1.5-.1-.3-.1-.6-.1-.8.1-.5-.1-1.2-.8-2-.7-.7-2 .7-2.5 2.1v.1c-.4 1.4-.7 2.7-.6 2.8 0 .1.1.1.1.2.6 1.2.2 2.6-1 3.2-1.2.6-2.6.2-3.2-1-.6-1.2-.2-2.6 1-3.2.1 0 .1-.1.2-.1s.3-.6.6-1.4c.2-.7.3-1 .4-1.3.1-.4.3-1.4.2-1.8-.1-.5-.6-.5-1.1-.2-.3.2-.9.7-1.1.9-.5.4-.9 1-1.1 1.5-.1.2-.3.5-.5.7-.9.7-2.2.6-3-.3-.7-.9-.6-2.2.3-3 .3-.2.6-.4.9-.4.5-.1 2.3-1.2 3.4-2 .2-.1.5-.4.6-.5.3-.4 0-.7-.3-.7-.9.1-1.9.2-2.1.5-.1.1-.2.3-.4.4-.8.6-2 .4-2.6-.4-.6-.8-.4-2 .4-2.6.3-.3.8-.4 1.1-.4.7 0 2.5.4 3.9.1l.4-.1c1.5-.3 3.3-1.6 4-2.9 0 0 .7-1.2 1.5-2.7.9-1.5.8-3.2-.1-3.7l-1.7-1c-.9-.5-2.2-.5-3.1 0L1.6 7C.7 7.5 0 8.7 0 9.7v12.8c0 1 .7 2.2 1.6 2.7l11.6 6.6c.9.5 2.3.5 3.1 0l11.6-6.6c.9-.5 1.6-1.7 1.6-2.7V9.7c0-1-.7-2.2-1.6-2.7 0 0-.8-.5-1.9-1.1z"/></g><defs><clipPath id="clip0"><path fill="#fff" d="M0 0h139v32H0z"/></clipPath></defs></svg>
