<svg viewBox="0 0 160 32" xmlns="http://www.w3.org/2000/svg">
  <g id="ru">
    <path d="M38.4 6.905v19.03h3.317V9.48h5.917v16.456h3.309V6.905H38.4zm18.296 5.26H53.68V29.91h3.265v-5.59c.82 1.236 2.022 1.893 3.421 1.893 3.179 0 5.364-2.549 5.364-7.17 0-4.604-2.133-7.153-5.2-7.153-1.538 0-2.79.717-3.671 2.056l-.164-1.78zm2.85 11.472c-1.727 0-2.6-1.39-2.6-4.57 0-3.204.925-4.603 2.765-4.603 1.779 0 2.651 1.399 2.651 4.578 0 3.205-.933 4.595-2.816 4.595zm18.538-7.092c0-3.343-1.702-4.595-5.148-4.595-2.169 0-3.862.682-4.847 1.252v2.713c.873-.657 2.79-1.365 4.458-1.365 1.563 0 2.28.544 2.28 2.021v.77H74.3c-4.984 0-7.195 1.64-7.195 4.44 0 2.79 1.693 4.353 4.215 4.353 1.918 0 2.739-.63 3.37-1.287h.137c.026.354.13.82.242 1.088h3.179a33.53 33.53 0 01-.164-3.36v-6.03zm-3.257 6.108c-.414.604-1.183 1.097-2.332 1.097-1.365 0-2.056-.821-2.056-2.056 0-1.616 1.123-2.186 3.922-2.186h.466v3.145zm13.96 3.282h3.697l-5.226-7.42 4.595-6.35h-3.282l-4.605 6.35v-6.35H80.71v13.77h3.257v-6.764l4.82 6.764zm15.307-11.195v-2.574H93.166v2.574h3.836v11.195h3.265V14.74h3.827zm1.917-2.574v13.77h2.825l5.036-8.51v8.51h3.179v-13.77h-2.825l-5.036 8.517v-8.517h-3.179zm21.855 13.77h3.697l-5.235-7.421 4.604-6.35h-3.282l-4.604 6.35v-6.35h-3.257v13.77h3.257v-6.764l4.82 6.764zm6.548 4.25c3.032 0 4.155-2.17 5.088-4.985l4.301-13.035h-3.153l-3.04 10.348-3.032-10.348h-3.43l4.743 14.374c-.363.656-.881 1.07-1.78 1.07-.604 0-1.123-.19-1.485-.552v2.66s.501.467 1.788.467zm22.364-4.25h3.179l-.052-13.77h-4.466l-2.98 9.174-2.687-9.174h-4.742v13.77h2.773V15.646l2.98 10.288h2.661l3.334-10.288v10.288z" />
    <path fill-rule="evenodd" clip-rule="evenodd" d="M32 16c0 8.837-7.163 16-16 16S0 24.837 0 16 7.163 0 16 0s16 7.163 16 16zM16.667 9.067h1.466V25.6h3.334v-19h-4.8c-4.867 0-7.4 2.467-7.4 6.133 0 2.867 1.4 4.6 3.866 6.4l-4.333 6.4h3.6l4.8-7.2-1.667-1.133c-2-1.4-3-2.467-3-4.733 0-2 1.4-3.4 4.134-3.4z" />
  </g>
  <g id="en" display="none">
    <path d="M38.4 7.268V25.74h3.208v-6.59h1.562c4.184 0 6.858-1.946 6.858-6.037 0-3.723-2.49-5.845-6.833-5.845H38.4Zm4.795 9.383h-1.587V9.767h1.695c2.247 0 3.467 1.031 3.467 3.346 0 2.414-1.345 3.538-3.575 3.538Zm11.836.738c.877-1.618 2.172-2.44 4.11-2.34v-2.976c-1.804.109-3.283 1.199-4.026 2.951h-.084l-.075-2.658h-3.074V25.74h3.15V17.39Zm15.387-.772c0-3.236-1.646-4.46-4.979-4.46-2.088 0-3.734.662-4.686 1.224v2.633c.844-.646 2.698-1.333 4.319-1.333 1.503 0 2.196.528 2.196 1.97v.738h-.5c-4.82 0-6.967 1.601-6.967 4.31 0 2.708 1.637 4.225 4.076 4.225 1.854 0 2.648-.612 3.258-1.249h.133c.025.344.134.797.234 1.065h3.074a32.96 32.96 0 0 1-.158-3.27v-5.853Zm-3.15 5.928c-.4.587-1.144 1.065-2.255 1.065-1.32 0-1.98-.746-1.98-1.886 0-1.518 1.086-2.071 3.784-2.071h.451v2.893ZM78.678 26c1.454 0 2.49-.26 3.258-.822v-2.574c-.793.553-1.745.897-3.074.897-2.246 0-3.174-1.752-3.174-4.51 0-2.902 1.136-4.386 3.2-4.386 1.22 0 2.414.42 3.048.822v-2.683c-.66-.378-1.829-.638-3.39-.638-4.027 0-6.115 2.893-6.115 6.96 0 4.469 2.038 6.934 6.248 6.934Zm4.32-13.634v2.499h1.662v6.859c0 2.498 1.403 4.276 4.318 4.276 1.537 0 2.414-.344 2.414-.344v-2.574s-.584.42-1.645.42c-1.32 0-1.93-.764-1.93-1.753v-6.884h3.308v-2.499h-3.308V9.448H84.66v2.918h-1.663Zm11.543-1.643c1.036 0 1.855-.721 1.855-1.862C96.396 7.746 95.577 7 94.54 7c-1.035 0-1.829.746-1.829 1.861 0 1.14.794 1.862 1.83 1.862Zm-1.562 1.643V25.74h3.15V12.366h-3.15ZM104.498 26c1.454 0 2.489-.26 3.258-.822v-2.574c-.794.553-1.746.897-3.074.897-2.247 0-3.174-1.752-3.174-4.51 0-2.902 1.136-4.386 3.199-4.386 1.22 0 2.414.42 3.049.822v-2.683c-.668-.378-1.829-.638-3.391-.638-4.027 0-6.115 2.893-6.115 6.96 0 4.469 2.038 6.934 6.248 6.934Zm12.655-4.033c-.584.713-1.512 1.325-2.648 1.325-1.111 0-1.612-.478-1.612-1.484v-9.442h-3.157v9.76c0 2.658 1.061 3.824 3.633 3.824 1.88 0 2.991-.688 3.626-1.325h.158l.084 1.115h3.065V12.366h-3.149v9.6Zm8.955-5.827c.576-.713 1.37-1.325 2.514-1.325 1.111 0 1.479.478 1.479 1.484v9.441h3.149v-9.6c.584-.713 1.378-1.325 2.522-1.325 1.111 0 1.479.478 1.479 1.484v9.441h3.149v-9.76c0-2.658-.927-3.823-3.492-3.823-2.038 0-3.257.796-4.001 1.702-.501-1.174-1.562-1.702-3.283-1.702-1.879 0-2.723.687-3.357 1.325h-.159l-.084-1.116h-3.074V25.74h3.158v-9.6ZM16.016 0C7.173 0 0 7.176 0 15.997 0 24.844 7.173 32 16.016 32c8.81 0 15.982-7.156 15.982-16.003C31.998 7.177 24.825 0 16.016 0Zm1.663 25.505h-3.3v-5.452L8.158 6.46h3.44l4.85 10.632c.932 2.03 1.231 2.74 1.231 5.178v3.234Zm2.156-9.836h-3.36l4.039-9.208h3.36l-4.04 9.208Z"/>
  </g>
</svg>
